<?xml version="1.0" encoding="UTF-8"?>
<svg version="1.1" xmlns="http://www.w3.org/2000/svg" width="1024" height="1024">
<path d="M0 0 C337.92 0 675.84 0 1024 0 C1024 337.92 1024 675.84 1024 1024 C686.08 1024 348.16 1024 0 1024 C0 686.08 0 348.16 0 0 Z " fill="#3C3D3D" transform="translate(0,0)"/>
<path d="M0 0 C1.3504113 -0.00591408 1.3504113 -0.00591408 2.72810364 -0.01194763 C5.70219834 -0.01865253 8.67475096 0.01053235 11.64868164 0.04077148 C13.73734745 0.04502876 15.82601802 0.04735096 17.91468811 0.0478363 C22.30206658 0.05400447 26.68893517 0.0766897 31.07617188 0.11230469 C36.63176642 0.15710056 42.18689347 0.17230654 47.74265194 0.1760416 C52.06625274 0.18053231 56.38976026 0.19595005 60.71331978 0.21491814 C62.75691541 0.22365655 64.80052048 0.23045389 66.84412956 0.23507881 C81.27720076 0.28146041 95.51228067 1.13774145 109.87133789 2.59936523 C109.87133789 3.25936523 109.87133789 3.91936523 109.87133789 4.59936523 C110.67571289 4.5471582 110.67571289 4.5471582 111.49633789 4.49389648 C119.86172729 4.20496034 127.72749389 5.90188907 135.87133789 7.59936523 C135.87133789 8.25936523 135.87133789 8.91936523 135.87133789 9.59936523 C137.77206055 9.76758789 137.77206055 9.76758789 139.71118164 9.93920898 C155.07455894 11.66492533 169.51968007 16.9909225 182.87133789 24.59936523 C183.79970459 25.10741699 183.79970459 25.10741699 184.74682617 25.62573242 C194.73319676 31.09266677 203.47225696 37.71675091 212.11743164 45.10375977 C213.63606694 46.39874304 215.17391636 47.67112966 216.71508789 48.93920898 C243.65138205 71.82653487 260.44471066 111.44927056 265.87133789 145.59936523 C266.04648926 146.57558838 266.22164062 147.55181152 266.40209961 148.55761719 C268.48948093 162.05718737 268.17552308 175.70255965 268.13208008 189.32617188 C268.12067685 192.93844982 268.12727493 196.55043062 268.13922501 200.16269779 C268.14653834 202.99501179 268.14411307 205.8272582 268.13896942 208.65957451 C268.13703492 210.62388686 268.14298059 212.58820213 268.14923096 214.55250549 C268.07925549 228.1889467 266.09019397 241.35231457 262.87133789 254.59936523 C262.65380859 255.51621094 262.4362793 256.43305664 262.2121582 257.37768555 C255.43722979 285.54241438 244.64882922 310.45693728 225.87133789 332.59936523 C225.39825195 333.15897949 224.92516602 333.71859375 224.43774414 334.29516602 C214.86230341 345.47624467 204.15271901 354.40299158 191.37133789 361.72436523 C190.38375488 362.2923584 190.38375488 362.2923584 189.3762207 362.87182617 C185.51333783 364.98979925 182.20253058 365.98290941 177.87133789 366.59936523 C179.41108918 370.3650315 180.9556321 374.12869889 182.50390625 377.89086914 C183.27647417 379.77062037 184.04566013 381.65176049 184.81469727 383.53295898 C191.99724593 401.02198038 199.99289471 418.08274049 208.38006592 435.02301025 C215.37147199 449.1590366 222.26272949 463.27632002 228.39086914 477.81030273 C231.74204424 485.72916553 235.35371284 493.5321646 238.93383789 501.34936523 C239.2819754 502.11055664 239.63011292 502.87174805 239.98880005 503.65600586 C244.30650854 513.09217299 248.63964034 522.52086087 253.22119141 531.83276367 C255.23644154 535.9905429 256.80567133 540.15892931 258.17993164 544.57177734 C259.13930324 547.38518876 260.51847745 549.95806628 261.87133789 552.59936523 C261.87133789 553.25936523 261.87133789 553.91936523 261.87133789 554.59936523 C262.86133789 554.92936523 263.85133789 555.25936523 264.87133789 555.59936523 C266.25 557.78564453 266.25 557.78564453 267.64868164 560.67358398 C268.16043945 561.72763428 268.67219727 562.78168457 269.19946289 563.86767578 C269.73055664 564.9960083 270.26165039 566.12434082 270.80883789 567.28686523 C271.3515332 568.42486572 271.89422852 569.56286621 272.45336914 570.73535156 C275.69901413 577.67934965 278.40847866 584.3221787 280.02758789 591.82983398 C281.06159932 595.22388075 282.89595793 597.67272648 284.87133789 600.59936523 C284.87133789 601.58936523 284.87133789 602.57936523 284.87133789 603.59936523 C228.44133789 603.59936523 172.01133789 603.59936523 113.87133789 603.59936523 C111.23133789 597.65936523 108.59133789 591.71936523 105.87133789 585.59936523 C104.24180256 582.17230124 102.60293791 578.75639415 100.93383789 575.34936523 C97.04179872 567.30101263 93.58194885 559.14133603 90.27050781 550.83959961 C87.30507821 543.47787334 83.94587853 536.35890655 80.46777344 529.22802734 C77.41348309 522.90388481 74.80519351 516.49602793 72.34570312 509.92138672 C70.12421805 504.05411826 67.43744989 498.59134041 64.55102539 493.01733398 C62.81516432 489.48505854 61.34339894 485.89437216 59.93383789 482.22436523 C57.92810437 477.02364611 55.67391601 472.05407358 53.12133789 467.09936523 C49.76042416 460.56565774 46.76955654 453.91293823 43.87133789 447.16186523 C39.29421385 436.5000549 34.65295548 425.83819694 29.27758789 415.54858398 C27.77820696 412.40404897 26.77614596 409.3188231 25.80883789 405.97436523 C24.55014837 401.57528763 24.55014837 401.57528763 22.75024414 397.38842773 C21.87133789 395.59936523 21.87133789 395.59936523 21.87133789 392.59936523 C-1.55866211 392.59936523 -24.98866211 392.59936523 -49.12866211 392.59936523 C-49.12866211 462.88936523 -49.12866211 533.17936523 -49.12866211 605.59936523 C-101.92866211 605.59936523 -154.72866211 605.59936523 -209.12866211 605.59936523 C-210.25366331 598.84935805 -210.25366331 598.84935805 -210.26732731 595.51692772 C-210.27280175 594.75880236 -210.2782762 594.000677 -210.28391653 593.21957815 C-210.28489464 592.40327794 -210.28587275 591.58697774 -210.28688049 590.74594116 C-210.29181847 589.86531088 -210.29675645 588.98468061 -210.30184406 588.07736456 C-210.31718089 585.13076116 -210.32557072 582.18417952 -210.33398438 579.23754883 C-210.34356892 577.12088838 -210.35357933 575.00422982 -210.36398315 572.88757324 C-210.39105051 567.12897174 -210.41206954 561.3703621 -210.43198514 555.61173201 C-210.45395252 549.54376259 -210.48131481 543.47581741 -210.50804138 537.40786743 C-210.5523494 527.17695204 -210.59309104 516.94602763 -210.63134766 506.71508789 C-210.68471292 492.44576487 -210.74457743 478.17647481 -210.80574334 463.90718341 C-210.85355996 452.68739556 -210.8993548 441.46759931 -210.94506836 430.24780273 C-210.94988511 429.07417915 -210.95470187 427.90055556 -210.95966458 426.69136763 C-211.01393251 413.43389656 -211.06240987 400.17644882 -211.09708852 386.9189111 C-211.11487387 380.66822955 -211.14695583 374.41780844 -211.19002849 368.16725147 C-211.21621299 364.14277415 -211.23421037 360.11828462 -211.25064075 356.09375691 C-211.26010371 354.2349633 -211.27309645 352.37618335 -211.29009926 350.51744342 C-211.55958211 320.57317282 -211.55958211 320.57317282 -205.31616211 310.78686523 C-204.92726807 310.13492187 -204.53837402 309.48297852 -204.13769531 308.8112793 C-200.48644761 302.83844129 -196.32154396 297.22492153 -192.15234375 291.60766602 C-188.01073666 285.97894145 -184.3109391 280.1750759 -180.75366211 274.16186523 C-180.25278076 273.31712646 -179.75189941 272.4723877 -179.23583984 271.60205078 C-177.49565529 268.65378498 -175.76072683 265.70302528 -174.05932617 262.73217773 C-173.1808419 261.20000046 -172.28072964 259.68027755 -171.37866211 258.16186523 C-170.93006836 257.3794043 -170.48147461 256.59694336 -170.01928711 255.79077148 C-166.82286526 252.08582798 -162.79711616 249.15581088 -157.94104922 248.14318812 C-155.54312993 247.97912202 -153.19127601 247.96573719 -150.78816223 248.0115509 C-149.87986701 248.00868991 -148.97157179 248.00582892 -148.03575248 248.00288123 C-145.00863956 247.99934426 -141.98298406 248.03144257 -138.95605469 248.06347656 C-136.77895461 248.06816396 -134.60184874 248.07061393 -132.42474365 248.07099915 C-127.74347079 248.07663038 -123.06263294 248.09806829 -118.38147926 248.13184547 C-110.97157955 248.18523247 -103.56184327 248.20351576 -96.15177917 248.21720886 C-84.42347565 248.24306926 -72.69541115 248.29270978 -60.96723527 248.35235375 C-39.98519739 248.45874984 -19.00303317 248.5295288 1.97920114 248.58419055 C9.33669706 248.6043626 16.69401407 248.6365181 24.0514158 248.67867815 C28.64084918 248.70326352 33.23028793 248.71962972 37.81976318 248.73411369 C39.93806508 248.74260567 42.05635648 248.75460261 44.17461586 248.77048492 C62.29437504 248.90372022 80.23543491 248.90561176 94.90258789 236.60327148 C105.22029547 226.10131912 106.38601567 212.63168809 106.30883789 198.59936523 C106.32881836 197.31030273 106.34879883 196.02124023 106.36938477 194.69311523 C106.36416149 184.41371859 104.6237823 174.66734741 97.93383789 166.50561523 C89.98242874 159.15658556 79.89149681 155.59079499 69.66040039 152.70483398 C65.87133789 151.59936523 65.87133789 151.59936523 62.5748291 150.05729675 C56.23298771 147.67663283 49.50550126 148.15895201 42.82641602 148.16699219 C41.30800585 148.15796498 39.78960296 148.14763541 38.27120972 148.1361084 C34.16848903 148.10862471 30.06590694 148.09926568 25.96310616 148.09325433 C21.66826045 148.0838481 17.37351736 148.05764293 13.07873535 148.0332489 C4.95459931 147.98964195 -3.16951675 147.96105938 -11.29373407 147.93792552 C-20.54652347 147.91084267 -29.79920934 147.8669331 -39.05192471 147.8216368 C-58.07744912 147.72887369 -77.10300093 147.65715485 -96.12866211 147.59936523 C-95.83485931 146.1800557 -95.53499715 144.7619998 -95.23266602 143.34448242 C-95.06634674 142.5546698 -94.90002747 141.76485718 -94.72866821 140.95111084 C-93.80378622 137.32600246 -92.23336998 134.15024529 -90.50366211 130.84936523 C-90.15029785 130.16036133 -89.79693359 129.47135742 -89.43286133 128.76147461 C-85.99849094 122.16382825 -82.1339317 115.86459141 -78.12866211 109.59936523 C-71.37734985 98.99546929 -64.95689429 88.22181415 -58.63162231 77.36010742 C-53.82507157 69.11335764 -48.90372725 60.96572501 -43.73779297 52.93798828 C-38.29563163 44.41462369 -33.24664861 35.65827945 -28.17749023 26.90991211 C-26.17824371 23.46281007 -24.15908771 20.02821286 -22.12866211 16.59936523 C-21.51587402 15.56166992 -20.90308594 14.52397461 -20.27172852 13.45483398 C-19.68439941 12.4919043 -19.09707031 11.52897461 -18.49194336 10.53686523 C-17.73264526 9.28196289 -17.73264526 9.28196289 -16.95800781 8.00170898 C-11.86183199 1.30928004 -8.15431134 -0.14401003 0 0 Z " fill="#19C3CF" transform="translate(729.128662109375,178.400634765625)"/>
<path d="M0 0 C3.65265994 0.01758571 7.30529958 0.0114068 10.95799005 0.0083909 C17.25789985 0.0063128 23.5576415 0.01865793 29.85750902 0.04134226 C38.965568 0.07411652 48.07354727 0.08429497 57.18165881 0.08929422 C71.96576048 0.09800746 86.7497729 0.12451408 101.53382623 0.16250467 C115.87887391 0.19932838 130.22389706 0.22754318 144.56898248 0.24453592 C145.46505195 0.24560791 146.36112141 0.2466799 147.28434449 0.24778438 C154.29418414 0.25610407 161.30402432 0.26393107 168.31386471 0.27160263 C202.56003735 0.30920726 236.80598611 0.38971079 271.05213678 0.46426249 C271.05213678 49.30426249 271.05213678 98.14426249 271.05213678 148.46426249 C259.37967584 148.52484842 247.7072149 148.58543436 235.68104303 148.64785624 C211.8627048 148.77251218 188.04442073 148.90252157 164.22620904 149.04946756 C163.2242397 149.05563416 162.22227036 149.06180075 161.18993831 149.06815422 C152.15282314 149.12378377 143.1157091 149.17958762 134.07860124 149.23639345 C113.01192448 149.3686136 91.94570141 149.48718055 70.87862909 149.52723551 C63.4854764 149.54171595 56.09245926 149.57409791 48.69940984 149.61531782 C43.33405138 149.64407189 37.96945339 149.64894934 32.60404718 149.6341176 C29.3969041 149.63139818 26.19028969 149.65300565 22.98329294 149.68219614 C20.93113412 149.6939688 18.87886717 149.67676721 16.82676446 149.65756083 C5.84583407 149.80503621 -2.55772651 153.18922057 -12.25744879 158.16047525 C-14.94786322 159.46426249 -14.94786322 159.46426249 -16.94786322 159.46426249 C-19.3721427 166.73710093 -20.11084476 173.18940494 -16.94786322 180.46426249 C-8.33833999 195.77008156 10.57361446 200.63124609 26.16782892 205.88769388 C30.98027776 207.51054542 35.78183612 209.1649633 40.58338678 210.81973124 C41.51529336 211.14035028 42.44719995 211.46096933 43.40734613 211.79130411 C50.00760306 214.07322332 56.52233255 216.51487348 62.98963678 219.15176249 C71.25689522 222.50406815 79.64673883 225.35371803 88.12562311 228.11111307 C113.7700092 236.45092133 138.98321828 246.08158087 164.03895319 256.04385233 C170.47731266 258.58652751 176.83240433 260.57310433 183.55213678 262.21426249 C205.08644243 267.81839337 225.5299298 277.71198489 243.05213678 291.46426249 C244.42112115 292.52773905 244.42112115 292.52773905 245.81776178 293.61269999 C264.65938157 308.61231351 264.65938157 308.61231351 266.05213678 315.46426249 C265.20099527 318.01142861 264.32120884 320.00926991 263.05213678 322.33926249 C262.69184381 323.02778299 262.33155084 323.7163035 261.9603399 324.42568827 C257.04629875 333.62236873 251.49789919 342.46534515 246.00233209 351.32119608 C242.63006714 356.75616591 239.28015693 362.20490701 235.92713678 367.65176249 C234.91538385 369.29338358 234.91538385 369.29338358 233.88319147 370.96816874 C227.85875233 380.75239625 221.93865824 390.59663629 216.05213678 400.46426249 C205.76006318 417.71695335 195.27645106 434.84867648 184.66932428 451.90957499 C173.84946021 469.31558652 163.2797054 486.86459041 152.98963678 504.58926249 C147.32175688 514.35220151 141.49483539 524.00868297 135.60682428 533.64004374 C125.47294486 550.22148516 115.5593475 566.9319098 105.77357233 583.72061014 C103.87641417 586.97439989 101.96424282 590.21923384 100.05213678 593.46426249 C99.57034967 594.30328104 99.08856256 595.14229959 98.59217584 596.00674295 C95.01173372 602.07276998 95.01173372 602.07276998 91.05213678 603.46426249 C87.83538663 603.70813608 87.83538663 603.70813608 83.94460809 603.69924784 C83.2273051 603.70033029 82.5100021 603.70141274 81.77096266 603.702528 C79.36465659 603.70366102 76.95864765 603.69039962 74.55238092 603.67715311 C72.82641632 603.67486743 71.10045041 603.67343424 69.37448442 603.6727891 C64.66437019 603.66836361 59.9543774 603.65119152 55.24430478 603.63164568 C51.2546835 603.61668793 47.26506264 603.60911108 43.27542132 603.60167122 C30.5901635 603.57800599 17.90504307 603.53146547 5.21988142 603.47764444 C2.11048829 603.46450899 -0.99890632 603.45181089 -4.10830176 603.43923807 C-30.91472756 603.33012868 -57.72087709 603.18306583 -84.52701664 603.01888227 C-96.71504794 602.9443485 -108.90310458 602.87417946 -121.09115946 602.80362749 C-140.0434149 602.69381641 -158.99563353 602.57864171 -177.94786322 602.46426249 C-177.94786322 554.61426249 -177.94786322 506.76426249 -177.94786322 457.46426249 C-155.95130072 457.24769999 -155.95130072 457.24769999 -133.51036322 457.02676249 C-125.84015936 456.95123148 -125.84015936 456.95123148 -118.01500189 456.87417459 C-113.21528417 456.82911238 -108.4155678 456.78462387 -103.61583197 456.74160624 C-102.96492079 456.73576226 -102.31400961 456.72991828 -101.64337385 456.72389722 C-78.46451967 456.51697792 -55.28575604 456.39883859 -32.10615927 456.31331295 C-25.37164689 456.28838756 -18.63714796 456.26104021 -11.90265143 456.23216105 C-10.95003465 456.2280971 -9.99741788 456.22403316 -9.01593393 456.21984607 C-5.16667437 456.20341157 -1.31741496 456.18695062 2.53184342 456.17024291 C14.03111472 456.12050758 25.53033475 456.08026053 37.02968568 456.0546183 C44.35369701 456.03754254 51.6776216 456.0097983 59.00156599 455.97418839 C63.27948291 455.95380262 67.55727076 455.93846271 71.83523881 455.93620348 C75.79777831 455.93405748 79.76002549 455.91809717 83.72247553 455.89172113 C85.15709958 455.88457522 86.59175922 455.88236516 88.02639699 455.88578856 C101.99611486 455.91386543 113.7680465 452.38127085 126.82166803 447.80605936 C127.70209772 447.5037742 128.5825274 447.20148905 129.48963678 446.89004374 C130.27209772 446.61587626 131.05455865 446.34170877 131.86073053 446.05923319 C134.05213678 445.46426249 134.05213678 445.46426249 138.05213678 445.46426249 C142.86248203 430.84894336 142.86248203 430.84894336 141.01698053 416.22598124 C136.22981241 409.14523953 128.65906207 404.97515108 121.05213678 401.46426249 C121.05213678 400.14426249 121.05213678 398.82426249 121.05213678 397.46426249 C119.97319147 397.37016092 118.89424615 397.27605936 117.78260553 397.17910624 C112.11456883 396.46268626 106.79877508 394.7411577 101.36463678 393.02676249 C99.65123102 392.49115702 99.65123102 392.49115702 97.903211 391.94473124 C76.90021406 385.31611569 56.19384814 377.83722063 35.48963678 370.33926249 C34.57168329 370.00773172 33.6537298 369.67620096 32.70795953 369.33462381 C22.02348134 365.47110961 11.40532701 361.49013814 0.89074457 357.18273783 C-4.4287364 355.01572294 -9.79551815 353.10644647 -15.26036322 351.33926249 C-20.73358572 349.5665557 -26.06686578 347.66227107 -31.38536322 345.46426249 C-36.78203071 343.25083015 -42.18056373 341.40603517 -47.76036322 339.71426249 C-81.81625988 329.25604195 -113.99097119 314.52774407 -139.51036322 289.21426249 C-140.08206244 288.64812235 -140.65376166 288.08198221 -141.2427851 287.49868631 C-146.9652455 281.67694835 -151.08149456 276.3770914 -153.07676947 268.38223124 C-153.76380871 266.29761573 -153.76380871 266.29761573 -155.79551947 265.67129374 C-159.21454946 263.75390668 -160.27941371 260.40943492 -161.82286322 256.96426249 C-162.16800971 256.20959696 -162.51315619 255.45493143 -162.86876166 254.67739725 C-168.71968755 241.56693912 -173.18877077 227.56121497 -175.94786322 213.46426249 C-176.12736517 212.58818338 -176.30686713 211.71210428 -176.49180853 210.80947733 C-178.49200663 199.35008307 -178.24945591 187.81255734 -178.20860541 176.21572733 C-178.19790803 172.60439032 -178.20853466 168.99355293 -178.22130072 165.38223124 C-178.23136164 150.10324966 -177.90887013 135.1219961 -173.88536322 120.27676249 C-173.57272528 119.1123765 -173.57272528 119.1123765 -173.25377142 117.92446756 C-168.14976204 99.95398937 -160.02586651 81.36925071 -147.01036322 67.80410624 C-145.0135389 65.53876955 -143.7215784 63.43869231 -142.32286322 60.77676249 C-125.9156168 31.91637059 -87.84022081 15.43121455 -57.82286322 6.08926249 C-38.48581518 1.30001668 -19.88722834 -0.12061096 0 0 Z " fill="#0D5AB7" transform="translate(203.94786322116852,179.53573751449585)"/>
<path d="M0 0 C61.38 0 122.76 0 186 0 C185.0092917 3.9628332 184.0792346 5.56102053 181.6875 8.75 C180.97722656 9.70390625 180.26695312 10.6578125 179.53515625 11.640625 C178.69037369 12.76062001 177.84529695 13.88039316 177 15 C175.95660228 16.39030317 174.91365745 17.78094631 173.87109375 19.171875 C172.26248756 21.31797162 170.65278469 23.46315889 169.0378418 25.60449219 C168.54324463 26.26094727 168.04864746 26.91740234 167.5390625 27.59375 C166.87704834 28.47063477 166.87704834 28.47063477 166.20166016 29.36523438 C165.08955529 30.87816696 164.04155834 32.4376625 163 34 C162.01 34 161.02 34 160 34 C159.62101562 35.04800781 159.62101562 35.04800781 159.234375 36.1171875 C154.42816047 47.34182777 145.90850961 57.35332101 138.6484375 67.07421875 C136.16924403 70.39952838 133.74184591 73.75475669 131.3515625 77.14453125 C130.76729492 77.96985352 130.18302734 78.79517578 129.58105469 79.64550781 C128.4681761 81.2221389 127.36173061 82.80333643 126.26269531 84.38964844 C125.76092773 85.09766602 125.25916016 85.80568359 124.7421875 86.53515625 C124.3076123 87.157854 123.87303711 87.78055176 123.42529297 88.42211914 C121.78824369 90.23442635 120.18665115 90.95960907 118 92 C116.87916815 93.89780678 116.87916815 93.89780678 116 96 C115.10984029 97.22799141 114.19128405 98.43574327 113.25 99.625 C110.93476261 102.6409751 108.95455653 105.70285056 107.0625 109 C105.16510304 112.23933834 103.21878538 115.04208397 100.6875 117.8125 C93.09907262 126.12283529 84.56777301 137.29668096 81 148 C54.27 148 27.54 148 0 148 C0 99.16 0 50.32 0 0 Z " fill="#19B2C9" transform="translate(507,180)"/>
<path d="M0 0 C0.74378906 0.10828125 1.48757813 0.2165625 2.25390625 0.328125 C5.44257685 5.87736369 6.81102027 11.70352713 8.31640625 17.890625 C8.57228516 18.89931641 8.82816406 19.90800781 9.09179688 20.94726562 C12.80112062 35.94666473 13.65808024 50.25466657 13.62890625 65.640625 C13.62869476 66.66458374 13.62848328 67.68854248 13.62826538 68.74353027 C13.59681434 83.97656508 12.96824293 98.4860385 9.25390625 113.328125 C8.98102783 114.49770752 8.98102783 114.49770752 8.70263672 115.69091797 C2.76157522 140.92582889 -7.5379542 165.73612591 -24.74609375 185.328125 C-25.2771875 185.94139648 -25.80828125 186.55466797 -26.35546875 187.18652344 C-39.51144642 202.25595814 -54.35331271 213.52675397 -71.74609375 223.328125 C-72.4122168 223.70453125 -73.07833984 224.0809375 -73.76464844 224.46875 C-84.888971 230.64333628 -96.5931677 234.66226042 -108.74609375 238.328125 C-109.4412207 238.53953125 -110.13634766 238.7509375 -110.85253906 238.96875 C-132.26541868 245.3742198 -153.53962889 246.52078653 -175.74609375 246.328125 C-172.41914368 237.37095172 -166.48897267 229.84072045 -160.65039062 222.37475586 C-156.24759276 216.73470559 -152.11137373 210.91900795 -147.98291016 205.07666016 C-145.9748711 202.23781773 -143.95450746 199.40781 -141.93359375 196.578125 C-141.52592773 196.00666748 -141.11826172 195.43520996 -140.69824219 194.84643555 C-138.38332858 191.60528918 -136.05697481 188.37281189 -133.71875 185.1484375 C-127.39024674 176.42067185 -121.14659197 167.6414332 -114.98193359 158.79711914 C-111.079182 153.20729133 -107.12326114 147.65965583 -103.12109375 142.140625 C-94.97692374 130.9070326 -86.96143645 119.5885213 -79.12109375 108.140625 C-73.09768671 99.34704921 -66.90021537 90.68584766 -60.65234375 82.05078125 C-59.55856979 80.53907984 -58.46482023 79.02736077 -57.37109375 77.515625 C-56.8208252 76.75523926 -56.27055664 75.99485352 -55.70361328 75.21142578 C-51.51212227 69.41055924 -47.37776866 63.57133628 -43.26171875 57.71679688 C-39.67249879 52.61954078 -36.03190072 47.5616469 -32.37109375 42.515625 C-27.68840493 36.05540558 -23.07078791 29.55275373 -18.49609375 23.015625 C-17.90852295 22.1795874 -17.32095215 21.3435498 -16.71557617 20.48217773 C-14.09903927 16.74832681 -11.51453765 13.00490095 -9.0390625 9.17578125 C-8.63526367 8.56065674 -8.23146484 7.94553223 -7.81542969 7.31176758 C-6.76715923 5.70612294 -5.73818003 4.08792833 -4.7109375 2.46875 C-2.74609375 0.328125 -2.74609375 0.328125 0 0 Z " fill="#116BB9" transform="translate(494.74609375,535.671875)"/>
<path d="M0 0 C2 2 2 2 2.24954766 3.95071149 C2.24933029 4.75648342 2.24911292 5.56225535 2.24888897 6.39244461 C2.25348777 7.32134294 2.25808656 8.25024127 2.26282471 9.20728803 C2.25768115 10.23468681 2.25253759 11.2620856 2.24723816 12.32061768 C2.24965257 13.40684064 2.25206699 14.4930636 2.25455457 15.61220241 C2.26022094 19.27700994 2.25150597 22.94164542 2.24291992 26.60644531 C2.24399215 29.22438606 2.24592994 31.84232658 2.24867249 34.46026611 C2.25372371 40.85088634 2.24805965 47.24145496 2.23882218 53.63206878 C2.2284433 61.08044457 2.22850832 68.52880916 2.22899476 75.97719082 C2.22949594 89.27940112 2.22032271 102.58158743 2.20581055 115.88378906 C2.19175617 128.77311643 2.1846383 141.66242267 2.18530273 154.55175781 C2.18534269 155.34383154 2.18538265 156.13590526 2.18542381 156.95198122 C2.18546417 157.74271739 2.18550452 158.53345357 2.1855461 159.34815145 C2.18623802 174.03272257 2.18032954 188.71728476 2.17139288 203.40185298 C2.1683874 208.58403642 2.16731457 213.76621819 2.16686058 218.9484024 C2.1661747 225.28011246 2.16165915 231.61180747 2.15252777 237.94351116 C2.14794385 241.16949022 2.14538959 244.39544661 2.14612198 247.62142944 C2.14962657 272.46923848 2.14962657 272.46923848 1 284 C1.65828293 283.79026047 2.31656586 283.58052094 2.99479675 283.36442566 C18.76583461 278.46504991 35.58258679 278.63088658 51.9375 278.6875 C52.95614136 278.68832581 53.97478271 278.68915161 55.02429199 278.69000244 C89.10018518 278.75248478 123.02572124 281.5732658 157 284 C157 214.37 157 144.74 157 73 C180.76 73 204.52 73 229 73 C229 73.66 229 74.32 229 75 C205.9 75 182.8 75 159 75 C159 145.29 159 215.58 159 288 C106.2 288 53.4 288 -1 288 C-2.1250012 281.24999281 -2.1250012 281.24999281 -2.1386652 277.91756248 C-2.14413964 277.15943713 -2.14961409 276.40131177 -2.15525442 275.62021291 C-2.15623253 274.80391271 -2.15721064 273.9876125 -2.15821838 273.14657593 C-2.16315636 272.26594565 -2.16809434 271.38531537 -2.17318195 270.47799933 C-2.18851878 267.53139593 -2.19690861 264.58481429 -2.20532227 261.63818359 C-2.21490681 259.52152314 -2.22491722 257.40486459 -2.23532104 255.28820801 C-2.2623884 249.5296065 -2.28340744 243.77099687 -2.30332303 238.01236677 C-2.32529042 231.94439736 -2.3526527 225.87645217 -2.37937927 219.8085022 C-2.42368729 209.5775868 -2.46442893 199.34666239 -2.50268555 189.11572266 C-2.55605081 174.84639963 -2.61591532 160.57710958 -2.67708123 146.30781817 C-2.72489785 135.08803033 -2.77069269 123.86823408 -2.81640625 112.6484375 C-2.821223 111.47481391 -2.82603976 110.30119033 -2.83100247 109.09200239 C-2.8852704 95.83453133 -2.93374776 82.57708358 -2.96842641 69.31954587 C-2.98621176 63.06886432 -3.01829372 56.81844321 -3.06136638 50.56788623 C-3.08755088 46.54340892 -3.10554826 42.51891939 -3.12197864 38.49439168 C-3.1314416 36.63559807 -3.14443434 34.77681812 -3.16143715 32.91807818 C-3.25831084 22.15371234 -3.09171092 11.60211783 -1 1 C-0.67 0.67 -0.34 0.34 0 0 Z " fill="#21789B" transform="translate(521,496)"/>
<path d="M0 0 C0.87678091 -0.00155999 1.75356182 -0.00311998 2.65691185 -0.00472724 C5.5702016 -0.00868926 8.48343846 -0.00556641 11.39672852 -0.00241089 C13.4949293 -0.00376698 15.59312985 -0.00554808 17.69132996 -0.00772095 C23.37044105 -0.01226828 29.04953392 -0.01051743 34.72864532 -0.00734186 C40.67122954 -0.00480699 46.61381221 -0.0071587 52.55639648 -0.00872803 C62.5261259 -0.01054529 72.49584789 -0.00815384 82.46557617 -0.00338745 C94.00656253 0.00206626 105.54753125 0.00028271 117.08851719 -0.00521386 C126.99436628 -0.00974338 136.90021005 -0.01039669 146.80605984 -0.00777519 C152.72429634 -0.00621306 158.64252453 -0.00601714 164.5607605 -0.00931168 C170.11590215 -0.01218846 175.67102089 -0.0102183 181.22616005 -0.00441742 C183.27046991 -0.00308929 185.31478169 -0.00348482 187.35909081 -0.00568008 C190.13679994 -0.00838923 192.91443438 -0.00501352 195.69213867 0 C196.51185874 -0.00223072 197.33157881 -0.00446144 198.17613888 -0.00675976 C203.72398413 0.01283301 203.72398413 0.01283301 204.83813477 1.12698364 C204.93466073 2.99993148 204.96000743 4.87656608 204.95838928 6.7519989 C204.96045128 8.5841394 204.96045128 8.5841394 204.96255493 10.45329285 C204.95901533 11.81921411 204.95538051 13.18513513 204.95166016 14.55105591 C204.95137829 15.97975665 204.95153601 17.40845754 204.95210266 18.8371582 C204.95239066 22.72748336 204.94649364 26.61777795 204.9395287 30.50809598 C204.93329547 34.56936569 204.93269139 38.63063603 204.9315033 42.69190979 C204.92838989 50.38777297 204.92017638 58.08362202 204.91015381 65.77947897 C204.8969078 76.17517415 204.89149284 86.57087318 204.88565159 96.96657467 C204.87623649 113.35338826 204.85631764 129.74017201 204.83813477 146.12698364 C167.87813477 146.12698364 130.91813477 146.12698364 92.83813477 146.12698364 C93.49813477 144.80698364 94.15813477 143.48698364 94.83813477 142.12698364 C96.71948372 142.11152245 96.71948372 142.11152245 98.63883972 142.0957489 C110.4543955 141.99802499 122.2698985 141.89529176 134.08536816 141.78764439 C140.15992111 141.73246213 146.23447892 141.67904957 152.30908203 141.62966919 C158.17055246 141.58195645 164.03196482 141.52961103 169.89336586 141.47404289 C172.13046131 141.45365067 174.36757265 141.43493245 176.60469627 141.41790962 C179.73619715 141.39379634 182.8675888 141.36375109 185.99902344 141.33230591 C186.92547165 141.32655045 187.85191986 141.32079498 188.80644226 141.31486511 C190.09149658 141.30018188 190.09149658 141.30018188 191.4025116 141.28520203 C192.14271136 141.27874948 192.88291113 141.27229692 193.64554119 141.26564884 C196.32722522 141.14515531 196.32722522 141.14515531 200.83813477 140.12698364 C200.83813477 95.24698364 200.83813477 50.36698364 200.83813477 4.12698364 C189.45313477 4.62198364 189.45313477 4.62198364 177.83813477 5.12698364 C173.78781053 5.20067185 169.75753624 5.25837785 165.70947266 5.24221802 C164.67840582 5.24219284 163.64733898 5.24216766 162.58502769 5.24214172 C159.22275083 5.24034961 155.86055237 5.23084056 152.49829102 5.22073364 C150.04167205 5.21691604 147.58505276 5.21330109 145.12843323 5.20986938 C114.87816457 5.15387942 84.62840737 4.91558224 54.37909949 4.68160248 C46.32728658 4.6194027 38.27545524 4.55975358 30.2236222 4.50022602 C13.76177246 4.37847038 -2.70005371 4.25380317 -19.16186523 4.12698364 C-18.83186523 3.13698364 -18.50186523 2.14698364 -18.16186523 1.12698364 C-12.06587543 0.36321451 -6.13947927 -0.01707932 0 0 Z " fill="#1388BF" transform="translate(269.161865234375,180.87301635742188)"/>
<path d="M0 0 C2 2 2 2 2.24954766 3.95071149 C2.24933029 4.75648342 2.24911292 5.56225535 2.24888897 6.39244461 C2.25348777 7.32134294 2.25808656 8.25024127 2.26282471 9.20728803 C2.25768115 10.23468681 2.25253759 11.2620856 2.24723816 12.32061768 C2.24965257 13.40684064 2.25206699 14.4930636 2.25455457 15.61220241 C2.26022094 19.27700994 2.25150597 22.94164542 2.24291992 26.60644531 C2.24399215 29.22438606 2.24592994 31.84232658 2.24867249 34.46026611 C2.25372371 40.85088634 2.24805965 47.24145496 2.23882218 53.63206878 C2.2284433 61.08044457 2.22850832 68.52880916 2.22899476 75.97719082 C2.22949594 89.27940112 2.22032271 102.58158743 2.20581055 115.88378906 C2.19175617 128.77311643 2.1846383 141.66242267 2.18530273 154.55175781 C2.18534269 155.34383154 2.18538265 156.13590526 2.18542381 156.95198122 C2.18546417 157.74271739 2.18550452 158.53345357 2.1855461 159.34815145 C2.18623802 174.03272257 2.18032954 188.71728476 2.17139288 203.40185298 C2.1683874 208.58403642 2.16731457 213.76621819 2.16686058 218.9484024 C2.1661747 225.28011246 2.16165915 231.61180747 2.15252777 237.94351116 C2.14794385 241.16949022 2.14538959 244.39544661 2.14612198 247.62142944 C2.15100938 282.27348593 2.15100938 282.27348593 -1 287 C-2.1446012 282.43623458 -2.1526382 277.94051424 -2.15821838 273.26683044 C-2.16315636 272.38705459 -2.16809434 271.50727874 -2.17318195 270.60084301 C-2.18854352 267.65113355 -2.19691534 264.70144586 -2.20532227 261.75170898 C-2.21490486 259.63519603 -2.22491517 257.51868497 -2.23532104 255.4021759 C-2.26240945 249.63938312 -2.28341702 243.87658219 -2.30332303 238.11376071 C-2.32527739 232.04311611 -2.35264614 225.97249583 -2.37937927 219.90187073 C-2.42370122 209.66497901 -2.4644398 199.42807826 -2.50268555 189.19116211 C-2.55603574 174.91346707 -2.6159032 160.63580511 -2.67708123 146.35814178 C-2.72490068 135.13329816 -2.77069693 123.90844613 -2.81640625 112.68359375 C-2.821223 111.50923602 -2.82603976 110.33487829 -2.83100247 109.12493396 C-2.88527212 95.85810446 -2.93374554 82.59129825 -2.96842641 69.32440215 C-2.98620769 63.07144466 -3.01828391 56.8187477 -3.06136638 50.56591481 C-3.08754951 46.54131417 -3.10554736 42.51670131 -3.12197864 38.49205029 C-3.13144153 36.63336516 -3.1444342 34.77469369 -3.16143715 32.91606224 C-3.25831318 22.15235137 -3.09152477 11.60147894 -1 1 C-0.67 0.67 -0.34 0.34 0 0 Z " fill="#1E98AE" transform="translate(521,496)"/>
<path d="M0 0 C0.89998215 -0.00365067 1.79996429 -0.00730133 2.72721863 -0.01106262 C5.71180971 -0.01918387 8.69585961 -0.0055246 11.68041992 0.0090332 C13.77194722 0.00955248 15.86347501 0.00903217 17.95500183 0.00752258 C22.35418936 0.00761243 26.75319417 0.01805198 31.15234375 0.03613281 C36.72366886 0.05855445 42.29472085 0.059414 47.86607838 0.05261517 C52.19824032 0.04922677 56.53034295 0.05599958 60.86249352 0.0657444 C62.91167576 0.06953376 64.9608647 0.07077138 67.01004982 0.06915855 C81.46916793 0.06725974 95.71420329 0.89799704 110.09838867 2.37231445 C110.09838867 3.03231445 110.09838867 3.69231445 110.09838867 4.37231445 C106.79838867 4.37231445 103.49838867 4.37231445 100.09838867 4.37231445 C100.09838867 5.69231445 100.09838867 7.01231445 100.09838867 8.37231445 C88.86473605 8.44330743 77.65424472 8.24286713 66.42520142 7.94369507 C57.65043267 7.7171113 48.87443717 7.54089087 40.09838867 7.37231445 C39.12232666 7.35344177 38.14626465 7.33456909 37.140625 7.31512451 C31.45572379 7.20930997 25.77138029 7.12996199 20.08566284 7.08520508 C18.31956879 7.06844021 16.55352573 7.04465383 14.78762817 7.01342773 C1.77507458 6.42670718 1.77507458 6.42670718 -9.90161133 11.37231445 C-11.92442046 13.61634942 -13.34206471 15.75630078 -14.90161133 18.37231445 C-16.90161133 17.37231445 -16.90161133 17.37231445 -18.40161133 14.80981445 C-18.98319771 10.81140811 -18.57196441 10.31064705 -16.27661133 7.18481445 C-11.36124608 1.10654572 -7.79881789 -0.07036737 0 0 Z " fill="#1EC5C3" transform="translate(728.901611328125,178.627685546875)"/>
<path d="M0 0 C0.66 0.33 1.32 0.66 2 1 C4.00909757 1.09957144 6.02155332 1.13345413 8.03311157 1.13803101 C9.32007935 1.14348434 10.60704712 1.14893768 11.93301392 1.15455627 C13.3676147 1.15567614 14.80221553 1.15672665 16.23681641 1.15771484 C17.74135487 1.16238204 19.24589191 1.16752544 20.75042725 1.17311096 C23.99598687 1.18440316 27.24153724 1.19283207 30.48711014 1.19923019 C35.62265703 1.20990323 40.75813786 1.23014775 45.89364624 1.25234985 C60.49921634 1.31429255 75.10478327 1.3682424 89.71044922 1.40136719 C97.7728823 1.41973275 105.8352054 1.44869586 113.89755762 1.4893719 C118.163439 1.51041506 122.42918193 1.52589529 126.69511795 1.52817917 C130.71217153 1.53033218 134.72893721 1.54626791 138.74590302 1.57256889 C140.21640559 1.5797394 141.68694314 1.5818738 143.15745926 1.57846642 C150.76063436 1.56366951 157.08490723 1.67089892 164 5 C164 5.33 164 5.66 164 6 C109.55 6 55.1 6 -1 6 C-1 1 -1 1 0 0 Z " fill="#346C71" transform="translate(631,324)"/>
<path d="M0 0 C0.33 3.63 0.66 7.26 1 11 C1.66 11 2.32 11 3 11 C6.55622475 18.1124495 5.16138632 28.62402467 5.16796875 36.3515625 C5.17119204 37.73766106 5.17455687 39.12375929 5.17805481 40.50985718 C5.1840128 43.40615627 5.18589828 46.30242569 5.18530273 49.19873047 C5.18520158 52.86611668 5.1988202 56.53330726 5.21607494 60.20064735 C5.22732997 63.06298656 5.22921782 65.92528058 5.22869301 68.78763962 C5.23040974 70.78297114 5.24116554 72.77828857 5.25224304 74.77359009 C5.19249689 99.07003282 5.19249689 99.07003282 0 106 C-0.66 106 -1.32 106 -2 106 C-2.04979112 101.44679318 -2.08590298 96.89374819 -2.10986328 92.34033203 C-2.11986197 90.79440547 -2.13346538 89.24849754 -2.15087891 87.70263672 C-2.17539951 85.46837745 -2.18654451 83.23437025 -2.1953125 81 C-2.20563507 80.31945557 -2.21595764 79.63891113 -2.22659302 78.93774414 C-2.22773659 73.94078604 -1.27172596 69.78612858 0 65 C0.29308601 62.62671156 0.29308601 62.62671156 0.265625 60.51953125 C0.26965332 59.75543945 0.27368164 58.99134766 0.27783203 58.20410156 C0.26864746 57.41487305 0.25946289 56.62564453 0.25 55.8125 C0.24202393 54.55324707 0.24202393 54.55324707 0.23388672 53.26855469 C0.14851844 47.6342484 -0.42070159 42.2681112 -1.421875 36.71875 C-2.22064117 31.58074061 -2.67421535 26.42870564 -3.125 21.25 C-3.21249512 20.27901367 -3.29999023 19.30802734 -3.39013672 18.30761719 C-3.88261474 12.51480725 -4.08373203 6.81339511 -4 1 C-2 0 -2 0 0 0 Z " fill="#18E1CF" transform="translate(992,318)"/>
<path d="M0 0 C2 2 2 2 2.24954766 3.95531416 C2.24933029 4.76325438 2.24911292 5.5711946 2.24888897 6.40361786 C2.25348777 7.33498298 2.25808656 8.2663481 2.26282471 9.22593641 C2.25768115 10.25606368 2.25253759 11.28619094 2.24723816 12.34753418 C2.24965257 13.4365794 2.25206699 14.52562463 2.25455457 15.64767122 C2.26022082 19.32181453 2.25150616 22.9957862 2.24291992 26.66992188 C2.24399213 29.2943527 2.24592989 31.91878328 2.24867249 34.54321289 C2.25372312 40.9485331 2.24806094 47.35380182 2.23882218 53.75911564 C2.22844699 61.22048999 2.22850819 68.68185315 2.22899476 76.14323336 C2.22949588 89.46333832 2.22032307 102.78341932 2.20581055 116.10351562 C2.19174488 129.02018674 2.18463878 141.93683674 2.18530273 154.85351562 C2.18534269 155.64785096 2.18538265 156.4421863 2.18542381 157.2605924 C2.18546417 158.05356743 2.18550452 158.84654246 2.1855461 159.66354704 C2.18623713 174.37005783 2.18033608 189.07655967 2.17139288 203.78306755 C2.16838232 208.97915287 2.16731398 214.17523654 2.16686058 219.37132263 C2.16617631 225.71339446 2.16168255 232.05545122 2.15252777 238.39751667 C2.14792941 241.63110126 2.14539225 244.86466295 2.14612198 248.09825134 C2.14661462 251.61105645 2.1409377 255.12380015 2.13371277 258.63659668 C2.13526137 259.64887817 2.13680997 260.66115966 2.1384055 261.70411634 C2.117562 267.85951493 1.73169772 273.88794874 1 280 C0.67 280 0.34 280 0 280 C0 190.57 0 101.14 0 9 C-0.66 9 -1.32 9 -2 9 C-1.125 1.125 -1.125 1.125 0 0 Z " fill="#1F78A0" transform="translate(521,496)"/>
<path d="M0 0 C0.33 1.32 0.66 2.64 1 4 C-54.44 4 -109.88 4 -167 4 C-167 3.34 -167 2.68 -167 2 C-166.45579879 1.99576806 -165.91159758 1.99153612 -165.35090542 1.98717594 C-151.84854297 1.8819544 -138.34621382 1.77307282 -124.84390926 1.66066074 C-118.31318745 1.60639103 -111.78246125 1.55316842 -105.25170898 1.50268555 C-78.79198373 1.29733225 -52.33449304 1.05219346 -25.87890625 0.52734375 C-24.86462996 0.50865297 -23.85035366 0.4899622 -22.80534172 0.47070503 C-19.99321901 0.41786059 -17.18132223 0.35846971 -14.36938477 0.29663086 C-13.12848304 0.27423875 -13.12848304 0.27423875 -11.86251259 0.25139427 C-0.11024241 -0.03307272 -0.11024241 -0.03307272 0 0 Z " fill="#1DD6DE" transform="translate(1012,776)"/>
<path d="M0 0 C0.99 0 1.98 0 3 0 C2.74058428 13.9848655 -1.87667825 25.76618714 -7.4375 38.375 C-7.79650391 39.19492432 -8.15550781 40.01484863 -8.52539062 40.85961914 C-11.15049557 46.6426879 -14.33708667 51.81650028 -18 57 C-19.65 56.67 -21.3 56.34 -23 56 C-21.72503343 52.54399926 -20.1493368 49.39665834 -18.33520508 46.19360352 C-11.18807659 33.48437455 -6.66577536 19.74073747 -2.5090332 5.81079102 C-1.09617946 1.09617946 -1.09617946 1.09617946 0 0 Z " fill="#19E4D7" transform="translate(986,436)"/>
<path d="M0 0 C2.64 0 5.28 0 8 0 C7.96519531 1.15628906 7.96519531 1.15628906 7.9296875 2.3359375 C7.91164063 3.33882813 7.89359375 4.34171875 7.875 5.375 C7.85179687 6.37273437 7.82859375 7.37046875 7.8046875 8.3984375 C7.72783152 11.16262173 7.72783152 11.16262173 10 13 C9.67 13.33 9.34 13.66 9 14 C8.60333773 16.18019479 8.25684763 18.3696463 7.9375 20.5625 C7.76089844 21.76003906 7.58429687 22.95757812 7.40234375 24.19140625 C7.26957031 25.11824219 7.13679687 26.04507812 7 27 C1.25 27.125 1.25 27.125 -1 26 C-1.34375 23.6015625 -1.34375 23.6015625 -1.5 20.625 C-1.70460671 16.74770285 -1.79475989 15.30786016 -4 12 C-3.9765625 9.73828125 -3.9765625 9.73828125 -3.625 7.3125 C-3.51414062 6.50425781 -3.40328125 5.69601562 -3.2890625 4.86328125 C-3.19367187 4.24839844 -3.09828125 3.63351562 -3 3 C-2.01 3 -1.02 3 0 3 C0 2.01 0 1.02 0 0 Z " fill="#16F4D7" transform="translate(951,275)"/>
<path d="M0 0 C2.5923455 15.42537502 3.40136043 30.36958417 3 46 C0.1340323 43.69210753 -0.91185962 42.39253148 -1.72949219 38.7512207 C-1.83422852 37.48882568 -1.93896484 36.22643066 -2.046875 34.92578125 C-2.10780334 34.24251266 -2.16873169 33.55924408 -2.23150635 32.85527039 C-2.42123209 30.67539611 -2.58548264 28.49440545 -2.75 26.3125 C-2.87473411 24.86509839 -3.0010214 23.41782975 -3.12890625 21.97070312 C-3.72821962 14.97260861 -4.15776767 8.02854952 -4 1 C-2 0 -2 0 0 0 Z " fill="#16F7E3" transform="translate(992,318)"/>
<path d="M0 0 C4.26875101 0.09429892 8.53699594 0.20055132 12.80517578 0.31738281 C14.25398848 0.35541616 15.70288739 0.39031137 17.15185547 0.421875 C36.62989466 0.85143892 36.62989466 0.85143892 43.8125 5.9375 C44.54082031 6.44152344 45.26914062 6.94554687 46.01953125 7.46484375 C47.83458956 8.87178244 49.42352979 10.33401413 51 12 C45.20052651 11.37392048 39.66190169 10.32599062 34 8.9375 C33.22527344 8.75123047 32.45054687 8.56496094 31.65234375 8.37304688 C29.76729241 7.91923822 27.8835073 7.46017508 26 7 C26 6.34 26 5.68 26 5 C17.34291147 3.89369712 8.69262672 2.79403802 0 2 C0 1.34 0 0.68 0 0 Z " fill="#316560" transform="translate(839,181)"/>
<path d="M0 0 C24.68292683 -0.43902439 24.68292683 -0.43902439 35 3 C35 3.99 35 4.98 35 6 C27.79475632 6.29746419 20.7250787 5.7797918 13.5625 5.0625 C12.24813965 4.93222412 12.24813965 4.93222412 10.90722656 4.79931641 C7.17993154 4.40988678 3.62469155 3.9796048 0 3 C0 2.01 0 1.02 0 0 Z " fill="#14E5D4" transform="translate(829,183)"/>
<path d="M0 0 C-1.29625969 5.99298143 -4.17953833 8.32676521 -8.875 11.8125 C-9.81279297 12.54629883 -9.81279297 12.54629883 -10.76953125 13.29492188 C-16.24651589 17.48082028 -16.24651589 17.48082028 -20 18 C-22.25 16.5625 -22.25 16.5625 -24 15 C-21.09399739 13.74335022 -19.20395416 13 -16 13 C-16 11.68 -16 10.36 -16 9 C-14.35 9 -12.7 9 -11 9 C-11 7.68 -11 6.36 -11 5 C-7.44648096 1.36384098 -5.30532773 -0.78019525 0 0 Z " fill="#1DD7CF" transform="translate(945,518)"/>
<path d="M0 0 C7.51193617 -0.69878476 15.29202881 1.6460144 22 5 C22 5.66 22 6.32 22 7 C23.32 7.33 24.64 7.66 26 8 C26 8.66 26 9.32 26 10 C18.80514301 10.45726996 14.28969775 9.2957941 7.9375 6 C6.78217773 5.42765625 6.78217773 5.42765625 5.60351562 4.84375 C3.72772028 3.91167778 1.86265628 2.95805972 0 2 C0 1.34 0 0.68 0 0 Z " fill="#16E5D6" transform="translate(872,190)"/>
<path d="M0 0 C0.66 0 1.32 0 2 0 C2.71484375 2.15625 2.71484375 2.15625 3 5 C-0.68231018 12.30167488 -5.82024883 17.28191457 -13 21 C-10.08590514 13.25209851 -5.69950589 6.0161451 0 0 Z " fill="#38575A" transform="translate(625,272)"/>
<path d="M0 0 C2 1 2 1 2.91796875 3.1484375 C3.0376872 7.31007877 0.84427811 9.56591362 -1.6875 12.625 C-2.13544922 13.19734375 -2.58339844 13.7696875 -3.04492188 14.359375 C-5.4381128 17.35521808 -7.79426238 19.88286181 -11 22 C-11.33 21.01 -11.66 20.02 -12 19 C-10.66364202 16.59337302 -9.29797984 14.38815593 -7.75 12.125 C-6.93169606 10.89883478 -6.11397692 9.67227906 -5.296875 8.4453125 C-4.90435547 7.86168945 -4.51183594 7.27806641 -4.10742188 6.67675781 C-2.66546987 4.4934848 -1.32191396 2.25755436 0 0 Z " fill="#1F8CA5" transform="translate(556,440)"/>
<path d="M0 0 C2 1 2 1 3.109375 3.0625 C4.22382067 6.73821554 4.29208741 10.19810399 4.25 14 C4.25773438 14.69867188 4.26546875 15.39734375 4.2734375 16.1171875 C4.25808241 20.18628563 3.8011034 23.34061531 2 27 C1.34 27 0.68 27 0 27 C0 18.09 0 9.18 0 0 Z " fill="#1EDCDB" transform="translate(840,365)"/>
<path d="M0 0 C4.85062868 2.75603902 8.2241367 5.54798657 10 11 C9.75 14.9375 9.75 14.9375 9 18 C4.80414834 16.60138278 4.09083481 14.27888415 2.07421875 10.5 C0.54522978 6.94162566 0.21017071 3.85312977 0 0 Z " fill="#375455" transform="translate(1007,762)"/>
<path d="M0 0 C3.94402106 1.64334211 5.54682264 3.55331594 7.3125 7.3125 C8.81140129 10.99654655 9.41172069 13.98572328 9 18 C4.26297291 14.84198194 1.85611759 11.29449935 0 6 C-0.25 2.5 -0.25 2.5 0 0 Z " fill="#20D5D3" transform="translate(992,737)"/>
<path d="M0 0 C2.31 0.33 4.62 0.66 7 1 C7 4.3 7 7.6 7 11 C4.69 11.33 2.38 11.66 0 12 C0 8.04 0 4.08 0 0 Z " fill="#16F4D7" transform="translate(941,267)"/>
<path d="M0 0 C0.66 0 1.32 0 2 0 C2.25 2.8125 2.25 2.8125 2 6 C0.69417053 7.03565785 -0.64377755 8.03126968 -2 9 C-2.67853876 10.71250259 -3.35541223 12.42580758 -4.0078125 14.1484375 C-5.83516946 17.55854458 -8.94644045 19.71610478 -12 22 C-12 17.0224006 -8.74989682 13.41803084 -6.125 9.3125 C-5.56941406 8.41982422 -5.01382813 7.52714844 -4.44140625 6.60742188 C-3.90644531 5.76373047 -3.37148438 4.92003906 -2.8203125 4.05078125 C-2.08192139 2.88542847 -2.08192139 2.88542847 -1.32861328 1.6965332 C-0.8901709 1.13667725 -0.45172852 0.57682129 0 0 Z " fill="#3A5D5D" transform="translate(667,214)"/>
<path d="M0 0 C0.66 0.99 1.32 1.98 2 3 C0.89880248 7.8452691 -1.46973206 11.78288677 -4 16 C-4.99 16 -5.98 16 -7 16 C-7.7109375 14.35546875 -7.7109375 14.35546875 -8 12 C-6.6015625 9.23828125 -6.6015625 9.23828125 -4.625 6.3125 C-3.97789062 5.33925781 -3.33078125 4.36601562 -2.6640625 3.36328125 C-1 1 -1 1 0 0 Z " fill="#229FA8" transform="translate(652,287)"/>
<path d="M0 0 C7.42943251 0.13620626 14.49898671 0.40191001 20 6 C20 6.99 20 7.98 20 9 C18.35 9 16.7 9 15 9 C15 8.01 15 7.02 15 6 C14.195625 5.9175 13.39125 5.835 12.5625 5.75 C8.04065795 4.79803325 4.15297299 2.98419821 0 1 C0 0.67 0 0.34 0 0 Z " fill="#15E5D5" transform="translate(898,201)"/>
<path d="M0 0 C1.65 0 3.3 0 5 0 C5.66 3.96 6.32 7.92 7 12 C7.99 12.33 8.98 12.66 10 13 C9.01 14.485 9.01 14.485 8 16 C7.34 16 6.68 16 6 16 C4.9901527 14.08850332 3.99245505 12.17058431 3 10.25 C2.443125 9.18265625 1.88625 8.1153125 1.3125 7.015625 C0 4 0 4 0 0 Z " fill="#395152" transform="translate(985,717)"/>
<path d="M0 0 C1.32 0 2.64 0 4 0 C3.36934243 3.21852831 2.21979305 5.50801069 0.4375 8.25 C-0.01753906 8.95640625 -0.47257813 9.6628125 -0.94140625 10.390625 C-1.46541016 11.18726563 -1.46541016 11.18726563 -2 12 C-3.32 11.34 -4.64 10.68 -6 10 C-5.38003922 8.70590711 -4.75383647 7.41480327 -4.125 6.125 C-3.77695312 5.40570313 -3.42890625 4.68640625 -3.0703125 3.9453125 C-2 2 -2 2 0 0 Z " fill="#18C4CD" transform="translate(658,221)"/>
<path d="M0 0 C1.32 0.66 2.64 1.32 4 2 C3.67 3.65 3.34 5.3 3 7 C3.99 7.33 4.98 7.66 6 8 C6.6875 10.3125 6.6875 10.3125 7 13 C5.5625 14.8125 5.5625 14.8125 4 16 C1.30614115 11.22452295 -0.3135419 6.43445998 -1 1 C-0.67 0.67 -0.34 0.34 0 0 Z " fill="#1DA5B8" transform="translate(756,581)"/>
<path d="M0 0 C0.66 0 1.32 0 2 0 C2.86580287 1.93232821 3.71729941 3.87107194 4.5625 5.8125 C5.27599609 7.43091797 5.27599609 7.43091797 6.00390625 9.08203125 C7 12 7 12 6 15 C6 14.34 6 13.68 6 13 C5.34 13 4.68 13 4 13 C1.86412403 10.9634671 0.37757538 9.54024899 -1 7 C-0.8125 3.125 -0.8125 3.125 0 0 Z " fill="#335257" transform="translate(750,574)"/>
<path d="M0 0 C0.81210937 0.41572266 0.81210937 0.41572266 1.640625 0.83984375 C-1.94479158 5.65774727 -5.79172181 9.36942809 -11.359375 11.83984375 C-12.019375 11.50984375 -12.679375 11.17984375 -13.359375 10.83984375 C-11.62399377 8.96982087 -9.8734415 7.11996283 -8.109375 5.27734375 C-7.37267578 4.47780273 -7.37267578 4.47780273 -6.62109375 3.66210938 C-2.88743798 -0.19600158 -2.88743798 -0.19600158 0 0 Z " fill="#1BE1DC" transform="translate(832.359375,412.16015625)"/>
<path d="M0 0 C0.66 0 1.32 0 2 0 C2.375 3.25 2.375 3.25 2 7 C-0.8125 9.5 -0.8125 9.5 -4 11 C-4.99 10.67 -5.98 10.34 -7 10 C-5.88321917 8.3278148 -4.75633648 6.66237197 -3.625 5 C-2.99851562 4.071875 -2.37203125 3.14375 -1.7265625 2.1875 C-1.15679688 1.465625 -0.58703125 0.74375 0 0 Z " fill="#33535A" transform="translate(606,298)"/>
<path d="M0 0 C0.66 0 1.32 0 2 0 C2 1.98 2 3.96 2 6 C0.02 6.66 -1.96 7.32 -4 8 C-2.87548273 5.0280615 -1.77706209 2.66559313 0 0 Z " fill="#396466" transform="translate(667,214)"/>
</svg>
